<svg viewBox="0 0 800 800" xmlns="http://www.w3.org/2000/svg"><path d="M399.99014261288676,396.39718509806966 L399.9901426128868,675.090621166573 M399.9901426128868,675.090621166573 L399.9901426128868,668.4600500017085 M399.9901426128868,668.4600500017085 L399.9901426128868,672.7373325704381 M399.9901426128868,672.7373325704381 L399.9901426128868,688.4599143170403 M399.9901426128868,688.4599143170403 L882.1384004880908,409.7588699378725 M882.1384004880908,409.7588699378725 L399.9901426128867,131.69190512655166 M399.9901426128867,131.69190512655166 L-82.15811526231727,409.7588699378724 M-82.15811526231727,409.7588699378724 L399.9901426128868,688.4599143170403 M399.9901426128868,688.4599143170403 L882.1384004880908,409.7588699378725 M882.1384004880908,409.7588699378725 L882.1581152623173,389.77038762378834" stroke="black"  stroke-width="4"  fill="red"/>
<path d="M399.99014261288676,125.11223700280124 L399.99014261288676,111.54008568295967 M-70.41125894283687,396.39718509806966 L-70.42432601140968,382.817489093523 M399.99014261288676,125.11223700280124 L-70.41125894283687,396.39718509806966 M399.99014261288676,111.54008568295967 L-70.42432601140968,382.817489093523 M399.99014261288676,668.2856592180217 L399.99014261288676,654.6984185274143 M-70.41125894283687,396.39718509806966 L399.99014261288676,668.2856592180217 M-70.42432601140968,382.817489093523 L399.99014261288676,654.6984185274143 M870.3915441686104,396.39718509806977 L870.4046112371832,382.81748909352314 M399.99014261288676,668.2856592180217 L870.3915441686104,396.39718509806977 M399.99014261288676,654.6984185274143 L870.4046112371832,382.81748909352314 M870.3915441686104,396.39718509806977 L399.99014261288676,125.11223700280124 M870.4046112371832,382.81748909352314 L399.99014261288676,111.54008568295967" stroke="black"  stroke-width="4"  fill="red"/></svg>