<svg viewBox="0 0 800 800" xmlns="http://www.w3.org/2000/svg"><path d="M400.24525028280794,397.45235421716313 L249.72044283063104,662.5142454289675 M249.72044283063104,662.5142454289675 L249.7183988921713,658.2767967432642 M249.7183988921713,658.2767967432642 L249.71971740639154,661.0103116995427 M249.71971740639154,661.0103116995427 L249.7245640460056,671.0582593593044 M249.7245640460056,671.0582593593044 L858.3009968390402,319.27665560233686 M858.3009968390402,319.27665560233686 L550.2567154040755,141.81675847751626 M550.2567154040755,141.81675847751626 L-58.31971608415091,492.7980145446839 M-58.31971608415091,492.7980145446839 L249.7245640460056,671.0582593593044 M249.7245640460056,671.0582593593044 L858.3009968390402,319.27665560233686 M858.3009968390402,319.27665560233686 L858.3197160841509,306.509559531287" stroke="black"  stroke-width="4"  fill="red"/>
<path d="M550.2649689468064,137.6105793539287 L550.269129342787,128.94174064069557 M-50.81459310438936,484.2588615505727 L-50.82712985758951,475.58038224658225 M550.2649689468064,137.6105793539287 L-50.81459310438936,484.2588615505727 M550.269129342787,128.94174064069557 L-50.82712985758951,475.58038224658225 M249.72463105565748,658.1617143053165 L249.72044283063104,649.4784147136328 M-50.81459310438936,484.2588615505727 L249.72463105565748,658.1617143053165 M-50.82712985758951,475.58038224658225 L249.72044283063104,649.4784147136328 M850.8041943436452,310.7422450040572 L850.8167032679368,302.068586004784 M249.72463105565748,658.1617143053165 L850.8041943436452,310.7422450040572 M249.72044283063104,649.4784147136328 L850.8167032679368,302.068586004784 M850.8041943436452,310.7422450040572 L550.2649689468064,137.6105793539287 M850.8167032679368,302.068586004784 L550.269129342787,128.94174064069557" stroke="black"  stroke-width="4"  fill="red"/></svg>